<?xml version="1.0" encoding="UTF-8"?> <svg xmlns="http://www.w3.org/2000/svg" xmlns:xlink="http://www.w3.org/1999/xlink" version="1.1" id="Layer_1" x="0px" y="0px" viewBox="0 0 161 43" style="enable-background:new 0 0 161 43;" xml:space="preserve"> <style type="text/css"> .st0{fill:#001165;} .st1{fill:#1868DD;} .st2{fill:#162159;} .st3{fill:none;} </style> <g> <path class="st0" d="M5,17.2l-3-12h3.7l0.8,4.5c0.2,1.4,0.5,3.1,0.7,4.2h0c0.2-1.3,0.4-2.8,0.7-4.3l0.8-4.4h3.9l0.8,4.7 c0.2,1.4,0.4,2.6,0.6,3.9h0c0.2-1.3,0.4-2.8,0.7-4.2l0.8-4.4h3.5l-3.3,12h-3.7L10.9,12c-0.2-1.1-0.3-2.1-0.5-3.5h0 C10.2,9.9,10,10.9,9.8,12l-1,5.2H5z"></path> <path class="st0" d="M28.5,12.4h-4.9v2.1h5.5v2.7h-8.8v-12h8.6v2.7h-5.2v1.8h4.9V12.4z"></path> <path class="st0" d="M30.9,5.3c0.7-0.1,2.5-0.3,4.1-0.3c1.9,0,2.9,0.1,3.8,0.5c1,0.4,1.8,1.3,1.8,2.6c0,1-0.6,2-2,2.5v0 c1.5,0.4,2.4,1.5,2.4,3c0,1.2-0.6,2.1-1.5,2.7c-1,0.6-2.5,1-5.2,1c-1.6,0-2.8-0.1-3.4-0.2V5.3z M34.3,9.7H35c1.6,0,2.3-0.4,2.3-1.2 c0-0.7-0.6-1.1-1.8-1.1c-0.6,0-1,0-1.2,0.1V9.7z M34.3,14.9c0.3,0,0.6,0,1.1,0c1.2,0,2.2-0.4,2.2-1.5c0-1-1-1.4-2.4-1.4h-0.9V14.9z "></path> <path class="st0" d="M52.9,16.8c-0.5,0.2-1.8,0.6-3.4,0.6c-4.9,0-7-2.8-7-6c0-4.2,3.3-6.4,7.2-6.4c1.6,0,2.9,0.3,3.4,0.6l-0.7,2.6 c-0.6-0.2-1.5-0.5-2.6-0.5c-2,0-3.8,1.1-3.8,3.5c0,2.1,1.4,3.5,3.9,3.5c0.9,0,1.9-0.2,2.5-0.4L52.9,16.8z"></path> </g> <g> <path class="st0" d="M90,12.7c0-1.5-0.1-3.2-0.1-5.2h-0.1c-0.4,1.7-1,3.6-1.5,5.1L87.1,17h-2.7l-1.1-4.3c-0.4-1.5-0.7-3.4-1.1-5.1 h0c-0.1,1.8-0.1,3.7-0.2,5.2l-0.2,4.5h-3.2l0.7-12h4.8l0.8,3c0.3,1.3,0.7,2.9,1,4.5h0.1c0.4-1.5,0.8-3.3,1.2-4.5l0.9-3h4.7l0.6,12 h-3.4L90,12.7z"></path> <path class="st1" d="M99.3,5.2h3.3v5h0c0.3-0.4,0.6-0.8,0.9-1.2l2.6-3.8h4.3l-4.2,5.1l4.4,7h-4l-2.9-5l-1.1,1.3v3.6h-3.3V5.2z"></path> <path class="st1" d="M120.1,12.4h-4.9v2.1h5.5v2.7h-8.8v-12h8.6v2.7h-5.2v1.8h4.9V12.4z"></path> <path class="st1" d="M122.5,17.2v-12h4.2l2,3.5c0.8,1.3,1.5,3,2.1,4.5h0.1c-0.2-1.8-0.2-3.2-0.2-4.9V5.2h3.1v12h-3.7l-2.2-4 c-0.8-1.4-1.6-3-2.3-4.7h-0.1c0.1,1.8,0.1,3.6,0.1,5.4v3.2H122.5z"></path> <path class="st1" d="M138.9,17.2v-5l-4.2-7h3.9l1.1,2.7c0.4,0.9,0.6,1.4,0.9,2.1h0c0.3-0.7,0.6-1.3,0.9-2.1l1.1-2.7h3.9l-4.4,6.9 v5.1H138.9z"></path> <path class="st1" d="M149.4,14.3l-0.8,2.9h-3.5l3.8-12h4.6l4,12h-3.7l-0.9-2.9H149.4z M152.4,11.8l-0.6-2.1 c-0.2-0.7-0.5-1.6-0.7-2.2h0c-0.2,0.7-0.4,1.6-0.6,2.3l-0.6,2.1H152.4z"></path> </g> <g> <path class="st0" d="M12.3,40.9c-1.3-0.4-2.6-0.9-3.8-1.4c-0.2-0.1-0.4-0.2-0.6-0.2c-2.3-0.1-4.3-2-4.3-5.5c0-3.3,1.8-5.7,4.7-5.7 c2.9,0,4.5,2.4,4.5,5.5c0,2.7-1,4.4-2.5,5v0.1c0.9,0.3,1.8,0.5,2.6,0.7L12.3,40.9z M10.7,33.7c0-2.1-0.8-4-2.5-4 c-1.7,0-2.6,1.9-2.6,4c0,2.2,0.9,4,2.6,4C9.8,37.8,10.7,36,10.7,33.7z"></path> <path class="st0" d="M20.8,36.8c0,0.9,0,1.7,0.1,2.3h-1.7l-0.1-1.1h0c-0.3,0.5-1.1,1.2-2.3,1.2c-1.4,0-2.5-0.9-2.5-3.3v-4.7h1.9 v4.4c0,1.2,0.3,2.1,1.3,2.1c0.7,0,1.2-0.5,1.3-1c0.1-0.2,0.1-0.4,0.1-0.6v-4.8h1.9V36.8z"></path> <path class="st0" d="M26.9,39.2l-0.1-0.9h0c-0.4,0.6-1.2,1-2.1,1c-1.5,0-2.3-1.1-2.3-2.3c0-2,1.7-2.9,4.3-2.9v-0.2 c0-0.6-0.2-1.4-1.5-1.4c-0.7,0-1.4,0.2-1.9,0.5l-0.4-1.3c0.5-0.3,1.5-0.7,2.6-0.7c2.4,0,3,1.5,3,3.2v2.9c0,0.7,0,1.4,0.1,1.9H26.9z M26.6,35.3c-1.2,0-2.5,0.3-2.5,1.5c0,0.8,0.5,1.2,1,1.2c0.7,0,1.2-0.4,1.4-1c0-0.1,0.1-0.3,0.1-0.4V35.3z"></path> <path class="st0" d="M30.4,27.8h1.9v11.3h-1.9V27.8z"></path> <path class="st0" d="M36.3,29.2c0,0.6-0.4,1-1.1,1c-0.6,0-1-0.5-1-1c0-0.6,0.4-1,1.1-1C35.9,28.1,36.3,28.6,36.3,29.2z M34.3,39.2 v-7.8h1.9v7.8H34.3z"></path> <path class="st0" d="M40.4,29.1v2.2h1.8v1.4h-1.8v3.6c0,1,0.3,1.4,1,1.4c0.3,0,0.5,0,0.7-0.1l0,1.5c-0.3,0.1-0.8,0.2-1.3,0.2 c-0.7,0-1.2-0.2-1.6-0.6c-0.4-0.4-0.6-1.1-0.6-2.2v-3.8h-1.1v-1.4h1.1v-1.7L40.4,29.1z"></path> <path class="st0" d="M44.9,31.3l1.3,4.2c0.1,0.5,0.3,1.1,0.4,1.5h0c0.1-0.4,0.2-1,0.4-1.5l1.1-4.2h2l-1.8,5.4 c-0.9,2.6-1.5,4-2.5,4.9c-0.7,0.7-1.5,1-1.9,1.1l-0.5-1.6c0.3-0.1,0.7-0.3,1.1-0.6c0.4-0.3,0.7-0.7,1-1.2c0.1-0.1,0.1-0.3,0.1-0.4 c0-0.1,0-0.2-0.1-0.4l-2.6-7.2H44.9z"></path> <path class="st0" d="M62.8,33.6c0,3.8-2,5.7-4.6,5.7c-2.8,0-4.5-2.3-4.5-5.5c0-3.3,1.8-5.6,4.6-5.6C61.3,28.2,62.8,30.6,62.8,33.6z M55.7,33.8c0,2.3,0.9,4,2.6,4c1.7,0,2.5-1.8,2.5-4.1c0-2-0.8-4-2.5-4C56.6,29.7,55.7,31.5,55.7,33.8z"></path> <path class="st0" d="M64.4,33.6c0-0.9,0-1.6-0.1-2.3H66l0.1,1.1h0c0.4-0.6,1.1-1.3,2.3-1.3c1.3,0,2.6,0.9,2.6,3.2v4.8h-1.9v-4.6 c0-1-0.3-1.9-1.3-1.9c-0.7,0-1.2,0.5-1.4,1.1c-0.1,0.2-0.1,0.4-0.1,0.7v4.7h-1.9V33.6z"></path> <path class="st0" d="M73,27.8h1.9v11.3H73V27.8z"></path> <path class="st0" d="M78.9,29.2c0,0.6-0.4,1-1.1,1c-0.6,0-1-0.5-1-1c0-0.6,0.4-1,1.1-1C78.5,28.1,78.9,28.6,78.9,29.2z M76.9,39.2 v-7.8h1.9v7.8H76.9z"></path> <path class="st0" d="M80.8,33.6c0-0.9,0-1.6-0.1-2.3h1.7l0.1,1.1h0c0.4-0.6,1.1-1.3,2.3-1.3c1.3,0,2.6,0.9,2.6,3.2v4.8h-1.9v-4.6 c0-1-0.3-1.9-1.3-1.9c-0.7,0-1.2,0.5-1.4,1.1c-0.1,0.2-0.1,0.4-0.1,0.7v4.7h-1.9V33.6z"></path> <path class="st0" d="M90.7,35.8c0,1.5,1.1,2.1,2.2,2.1c0.8,0,1.4-0.1,1.9-0.3l0.3,1.3c-0.6,0.3-1.5,0.5-2.5,0.5 c-2.4,0-3.8-1.5-3.8-3.9c0-2.3,1.3-4.2,3.6-4.2c2.3,0,3.1,1.9,3.1,3.7c0,0.4,0,0.7-0.1,0.9H90.7z M93.7,34.4c0-0.9-0.3-1.9-1.4-1.9 c-1.1,0-1.5,1.1-1.6,1.9H93.7z"></path> <path class="st0" d="M100.1,37.1c0.6,0.3,1.5,0.6,2.3,0.6c1.2,0,1.9-0.6,1.9-1.5c0-0.8-0.5-1.3-1.8-1.9c-1.6-0.7-2.7-1.7-2.7-3.1 c0-1.8,1.4-3.1,3.6-3.1c1,0,1.8,0.2,2.3,0.5l-0.4,1.6c-0.4-0.2-1-0.5-1.9-0.5c-1.2,0-1.7,0.7-1.7,1.3c0,0.8,0.6,1.2,1.9,1.8 c1.7,0.8,2.5,1.7,2.5,3.2c0,1.8-1.3,3.2-3.9,3.2c-1,0-2.1-0.3-2.6-0.6L100.1,37.1z"></path> <path class="st0" d="M114.7,35.2c0,3-1.9,4.1-3.7,4.1c-2,0-3.6-1.5-3.6-4c0-2.6,1.6-4.1,3.7-4.1C113.3,31.2,114.7,32.8,114.7,35.2z M109.4,35.3c0,1.5,0.6,2.7,1.7,2.7c1.1,0,1.7-1.2,1.7-2.7c0-1.2-0.4-2.7-1.7-2.7C109.8,32.6,109.4,34,109.4,35.3z"></path> <path class="st0" d="M116.2,27.8h1.9v11.3h-1.9V27.8z"></path> <path class="st0" d="M126.6,36.8c0,0.9,0,1.7,0.1,2.3H125l-0.1-1.1h0c-0.3,0.5-1.1,1.2-2.3,1.2c-1.4,0-2.5-0.9-2.5-3.3v-4.7h1.9 v4.4c0,1.2,0.3,2.1,1.3,2.1c0.7,0,1.2-0.5,1.3-1c0.1-0.2,0.1-0.4,0.1-0.6v-4.8h1.9V36.8z"></path> <path class="st0" d="M130.8,29.1v2.2h1.8v1.4h-1.8v3.6c0,1,0.3,1.4,1,1.4c0.3,0,0.5,0,0.7-0.1l0,1.5c-0.3,0.1-0.8,0.2-1.3,0.2 c-0.7,0-1.2-0.2-1.6-0.6c-0.4-0.4-0.6-1.1-0.6-2.2v-3.8h-1.1v-1.4h1.1v-1.7L130.8,29.1z"></path> <path class="st0" d="M136,29.2c0,0.6-0.4,1-1.1,1c-0.6,0-1-0.5-1-1c0-0.6,0.4-1,1.1-1C135.5,28.1,136,28.6,136,29.2z M134,39.2 v-7.8h1.9v7.8H134z"></path> <path class="st0" d="M144.6,35.2c0,3-1.9,4.1-3.7,4.1c-2,0-3.6-1.5-3.6-4c0-2.6,1.6-4.1,3.7-4.1C143.2,31.2,144.6,32.8,144.6,35.2z M139.3,35.3c0,1.5,0.6,2.7,1.7,2.7c1.1,0,1.7-1.2,1.7-2.7c0-1.2-0.4-2.7-1.7-2.7C139.8,32.6,139.3,34,139.3,35.3z"></path> <path class="st0" d="M146.2,33.6c0-0.9,0-1.6-0.1-2.3h1.7l0.1,1.1h0c0.4-0.6,1.1-1.3,2.3-1.3c1.3,0,2.5,0.9,2.5,3.2v4.8h-1.9v-4.6 c0-1-0.3-1.9-1.3-1.9c-0.7,0-1.2,0.5-1.4,1.1c-0.1,0.2-0.1,0.4-0.1,0.7v4.7h-1.9V33.6z"></path> <path class="st0" d="M154.6,37.4c0.4,0.2,1.2,0.5,1.8,0.5c0.8,0,1.2-0.4,1.2-0.9c0-0.5-0.3-0.8-1.2-1.2c-1.4-0.6-2-1.4-2-2.3 c0-1.4,1.1-2.4,2.8-2.4c0.8,0,1.5,0.2,1.9,0.4l-0.4,1.4c-0.3-0.2-0.9-0.4-1.5-0.4c-0.7,0-1,0.4-1,0.8c0,0.5,0.3,0.7,1.2,1.1 c1.3,0.5,1.9,1.3,1.9,2.4c0,1.5-1.1,2.4-3,2.4c-0.8,0-1.7-0.2-2.2-0.5L154.6,37.4z"></path> </g> <line class="st2" x1="62.4" y1="17" x2="62.3" y2="17.1"></line> <g> <path class="st0" d="M74.7,14c0.4-1,0.5-2.1,0.5-3.2c0-1.1-0.2-2.2-0.5-3.2c0,0,0-0.1,0-0.1c-1.4-3.8-5-6.5-9.2-6.5 c-4.2,0-7.8,2.7-9.2,6.5c0,0,0,0.1,0,0.1c-0.4,1-0.5,2.1-0.5,3.2c0,1.1,0.2,2.2,0.5,3.2c0,0,0,0.1,0,0.1c1.4,3.8,5,6.5,9.2,6.5 C69.7,20.6,73.3,17.9,74.7,14C74.7,14.1,74.7,14.1,74.7,14L74.7,14z M65.5,19.2c-0.4,0-1-0.7-1.5-2.2c-0.2-0.7-0.4-1.6-0.6-2.5h4.1 c-0.1,0.9-0.3,1.7-0.6,2.5C66.5,18.5,65.9,19.2,65.5,19.2L65.5,19.2z M63.3,13.2c-0.1-0.7-0.1-1.5-0.1-2.3c0-0.8,0-1.6,0.1-2.3h4.4 c0.1,0.7,0.1,1.5,0.1,2.3c0,0.8,0,1.6-0.1,2.3H63.3z M57.1,10.8c0-0.8,0.1-1.6,0.3-2.3h4.4c-0.1,0.8-0.1,1.5-0.1,2.3 c0,0.8,0,1.6,0.1,2.3h-4.4C57.3,12.4,57.1,11.6,57.1,10.8L57.1,10.8z M65.5,2.5c0.4,0,1,0.7,1.5,2.2c0.2,0.7,0.4,1.6,0.6,2.5h-4.1 c0.1-0.9,0.3-1.7,0.6-2.5C64.5,3.1,65.1,2.5,65.5,2.5L65.5,2.5z M69.1,8.5h4.4c0.2,0.7,0.3,1.5,0.3,2.3c0,0.8-0.1,1.6-0.3,2.3h-4.4 c0.1-0.8,0.1-1.5,0.1-2.3C69.2,10.1,69.2,9.3,69.1,8.5L69.1,8.5z M73,7.1h-4c-0.2-1.7-0.7-3.3-1.3-4.4C70,3.4,71.9,5,73,7.1L73,7.1 z M63.3,2.8c-0.6,1.1-1,2.6-1.3,4.4h-4C59.1,5,61,3.4,63.3,2.8L63.3,2.8z M58,14.6h4c0.2,1.7,0.7,3.3,1.3,4.4 C61,18.3,59.1,16.7,58,14.6L58,14.6z M67.7,18.9c0.6-1.1,1-2.6,1.3-4.4h4C71.9,16.7,70,18.3,67.7,18.9L67.7,18.9z M67.7,18.9"></path> </g> <rect x="-0.1" y="0.1" class="st3" width="162.1" height="43.2"></rect> <g> </g> <g> </g> <g> </g> <g> </g> <g> </g> <g> </g> </svg> 